<svg width="48" height="48" viewBox="0 0 48 48" fill="none" xmlns="http://www.w3.org/2000/svg">
<path d="M41.6802 9.22023C40.6587 8.19824 39.4459 7.38753 38.1109 6.8344C36.776 6.28128 35.3452 5.99658 33.9002 5.99658C32.4553 5.99658 31.0244 6.28128 29.6895 6.8344C28.3546 7.38753 27.1418 8.19824 26.1202 9.22023L24.0002 11.3402L21.8802 9.22023C19.8169 7.15685 17.0183 5.99765 14.1002 5.99765C11.1822 5.99765 8.38362 7.15685 6.32024 9.22023C4.25685 11.2836 3.09766 14.0822 3.09766 17.0002C3.09766 19.9183 4.25685 22.7168 6.32024 24.7802L8.44024 26.9002L24.0002 42.4602L39.5602 26.9002L41.6802 24.7802C42.7022 23.7587 43.5129 22.5459 44.0661 21.2109C44.6192 19.876 44.9039 18.4452 44.9039 17.0002C44.9039 15.5553 44.6192 14.1244 44.0661 12.7895C43.5129 11.4546 42.7022 10.2417 41.6802 9.22023Z" stroke="#C7C3C1" stroke-width="2" stroke-linecap="round" stroke-linejoin="round"/>
</svg>
